<?xml version="1.0" encoding="UTF-8" standalone="no"?>
<!DOCTYPE svg PUBLIC "-//W3C//DTD SVG 1.1//EN"
 "http://www.w3.org/Graphics/SVG/1.1/DTD/svg11.dtd">
<!-- Generated by graphviz version 13.1.2 (20250808.2320)
 -->
<!-- Title: arch Pages: 1 -->
<svg width="532pt" height="397pt"
 viewBox="0.00 0.00 532.00 397.00" xmlns="http://www.w3.org/2000/svg" xmlns:xlink="http://www.w3.org/1999/xlink">
<g id="graph0" class="graph" transform="scale(1 1) rotate(0) translate(4 392.81)">
<title>arch</title>
<polygon fill="white" stroke="none" points="-4,4 -4,-392.81 528,-392.81 528,4 -4,4"/>
<g id="clust1" class="cluster">
<title>cluster_client</title>
<polygon fill="white" stroke="#888888" stroke-dasharray="5,2" points="64,-305.06 64,-380.81 192,-380.81 192,-305.06 64,-305.06"/>
<text xml:space="preserve" text-anchor="middle" x="128" y="-363.51" font-family="Helvetica,sans-Serif" font-size="14.00">Client</text>
</g>
<g id="clust2" class="cluster">
<title>cluster_api</title>
<polygon fill="white" stroke="#888888" stroke-dasharray="5,2" points="8,-90.5 8,-276.56 192,-276.56 192,-90.5 8,-90.5"/>
<text xml:space="preserve" text-anchor="middle" x="100" y="-259.26" font-family="Helvetica,sans-Serif" font-size="14.00">Backend</text>
</g>
<g id="clust3" class="cluster">
<title>cluster_ai</title>
<polygon fill="white" stroke="#888888" stroke-dasharray="5,2" points="200,-8 200,-172.31 516,-172.31 516,-8 200,-8"/>
<text xml:space="preserve" text-anchor="middle" x="358" y="-155.01" font-family="Helvetica,sans-Serif" font-size="14.00">Brain Engine (FastAPI :5000)</text>
</g>
<!-- web -->
<g id="node1" class="node">
<title>web</title>
<path fill="#e3f2fd" stroke="black" d="M172,-349.06C172,-349.06 84,-349.06 84,-349.06 78,-349.06 72,-343.06 72,-337.06 72,-337.06 72,-325.06 72,-325.06 72,-319.06 78,-313.06 84,-313.06 84,-313.06 172,-313.06 172,-313.06 178,-313.06 184,-319.06 184,-325.06 184,-325.06 184,-337.06 184,-337.06 184,-343.06 178,-349.06 172,-349.06"/>
<text xml:space="preserve" text-anchor="middle" x="128" y="-334.11" font-family="Helvetica,sans-Serif" font-size="11.00">Next.js Web (:3000)</text>
<text xml:space="preserve" text-anchor="middle" x="128" y="-320.61" font-family="Helvetica,sans-Serif" font-size="11.00">Landing + Admin</text>
</g>
<!-- api -->
<g id="node2" class="node">
<title>api</title>
<path fill="#e8f5e9" stroke="black" d="M172.38,-244.81C172.38,-244.81 83.62,-244.81 83.62,-244.81 77.62,-244.81 71.62,-238.81 71.62,-232.81 71.62,-232.81 71.62,-220.81 71.62,-220.81 71.62,-214.81 77.62,-208.81 83.62,-208.81 83.62,-208.81 172.38,-208.81 172.38,-208.81 178.38,-208.81 184.38,-214.81 184.38,-220.81 184.38,-220.81 184.38,-232.81 184.38,-232.81 184.38,-238.81 178.38,-244.81 172.38,-244.81"/>
<text xml:space="preserve" text-anchor="middle" x="128" y="-229.86" font-family="Helvetica,sans-Serif" font-size="11.00">Express API (:4000)</text>
<text xml:space="preserve" text-anchor="middle" x="128" y="-216.36" font-family="Helvetica,sans-Serif" font-size="11.00">RBAC + Proxy</text>
</g>
<!-- web&#45;&gt;api -->
<g id="edge1" class="edge">
<title>web&#45;&gt;api</title>
<path fill="none" stroke="black" d="M128,-312.72C128,-297.37 128,-274.66 128,-256.59"/>
<polygon fill="black" stroke="black" points="131.5,-256.76 128,-246.76 124.5,-256.76 131.5,-256.76"/>
<text xml:space="preserve" text-anchor="middle" x="140" y="-286.51" font-family="Helvetica,sans-Serif" font-size="9.00">REST</text>
</g>
<!-- pg -->
<g id="node3" class="node">
<title>pg</title>
<path fill="#fff8e1" stroke="black" d="M183.75,-142.25C183.75,-144.66 146.21,-146.62 100,-146.62 53.79,-146.62 16.25,-144.66 16.25,-142.25 16.25,-142.25 16.25,-102.88 16.25,-102.88 16.25,-100.46 53.79,-98.5 100,-98.5 146.21,-98.5 183.75,-100.46 183.75,-102.88 183.75,-102.88 183.75,-142.25 183.75,-142.25"/>
<path fill="none" stroke="black" d="M183.75,-142.25C183.75,-139.84 146.21,-137.88 100,-137.88 53.79,-137.88 16.25,-139.84 16.25,-142.25"/>
<text xml:space="preserve" text-anchor="middle" x="100" y="-125.61" font-family="Helvetica,sans-Serif" font-size="11.00">PostgreSQL (:5432)</text>
<text xml:space="preserve" text-anchor="middle" x="100" y="-112.11" font-family="Helvetica,sans-Serif" font-size="11.00">services, users, RBAC, settings</text>
</g>
<!-- api&#45;&gt;pg -->
<g id="edge2" class="edge">
<title>api&#45;&gt;pg</title>
<path fill="none" stroke="black" d="M123.25,-208.47C119.44,-194.54 113.96,-174.56 109.29,-157.48"/>
<polygon fill="black" stroke="black" points="112.77,-156.94 106.75,-148.22 106.02,-158.79 112.77,-156.94"/>
<text xml:space="preserve" text-anchor="middle" x="128.64" y="-182.26" font-family="Helvetica,sans-Serif" font-size="9.00">Knex</text>
</g>
<!-- cv -->
<g id="node4" class="node">
<title>cv</title>
<path fill="#e1f5fe" stroke="black" d="M359.88,-140.56C359.88,-140.56 220.12,-140.56 220.12,-140.56 214.12,-140.56 208.12,-134.56 208.12,-128.56 208.12,-128.56 208.12,-116.56 208.12,-116.56 208.12,-110.56 214.12,-104.56 220.12,-104.56 220.12,-104.56 359.88,-104.56 359.88,-104.56 365.88,-104.56 371.88,-110.56 371.88,-116.56 371.88,-116.56 371.88,-128.56 371.88,-128.56 371.88,-134.56 365.88,-140.56 359.88,-140.56"/>
<text xml:space="preserve" text-anchor="middle" x="290" y="-125.61" font-family="Helvetica,sans-Serif" font-size="11.00">CV</text>
<text xml:space="preserve" text-anchor="middle" x="290" y="-112.11" font-family="Helvetica,sans-Serif" font-size="11.00">MediaPipe gate + ONNX CNN</text>
</g>
<!-- api&#45;&gt;cv -->
<g id="edge3" class="edge">
<title>api&#45;&gt;cv</title>
<path fill="none" stroke="black" d="M155.48,-208.47C182.25,-191.57 223.12,-165.78 252.79,-147.05"/>
<polygon fill="black" stroke="black" points="254.52,-150.1 261.1,-141.8 250.78,-144.18 254.52,-150.1"/>
<text xml:space="preserve" text-anchor="middle" x="233.8" y="-182.26" font-family="Helvetica,sans-Serif" font-size="9.00">proxy /ai/analyze</text>
</g>
<!-- rag -->
<g id="node5" class="node">
<title>rag</title>
<path fill="#f3e5f5" stroke="black" d="M495.62,-140.56C495.62,-140.56 402.38,-140.56 402.38,-140.56 396.38,-140.56 390.38,-134.56 390.38,-128.56 390.38,-128.56 390.38,-116.56 390.38,-116.56 390.38,-110.56 396.38,-104.56 402.38,-104.56 402.38,-104.56 495.62,-104.56 495.62,-104.56 501.62,-104.56 507.62,-110.56 507.62,-116.56 507.62,-116.56 507.62,-128.56 507.62,-128.56 507.62,-134.56 501.62,-140.56 495.62,-140.56"/>
<text xml:space="preserve" text-anchor="middle" x="449" y="-125.61" font-family="Helvetica,sans-Serif" font-size="11.00">RAG</text>
<text xml:space="preserve" text-anchor="middle" x="449" y="-112.11" font-family="Helvetica,sans-Serif" font-size="11.00">ChromaDB + Gemini</text>
</g>
<!-- api&#45;&gt;rag -->
<g id="edge4" class="edge">
<title>api&#45;&gt;rag</title>
<path fill="none" stroke="black" d="M184.83,-220.57C237.5,-214.16 317.12,-200.47 381,-172.31 395.05,-166.12 409.1,-156.72 420.74,-147.83"/>
<polygon fill="black" stroke="black" points="422.67,-150.77 428.34,-141.82 418.33,-145.28 422.67,-150.77"/>
<text xml:space="preserve" text-anchor="middle" x="401.91" y="-182.26" font-family="Helvetica,sans-Serif" font-size="9.00">proxy /ai/chat, /ai/agent</text>
</g>
<!-- crawl -->
<g id="node6" class="node">
<title>crawl</title>
<path fill="#fce4ec" stroke="black" d="M443.5,-52C443.5,-52 406.5,-52 406.5,-52 400.5,-52 394.5,-46 394.5,-40 394.5,-40 394.5,-28 394.5,-28 394.5,-22 400.5,-16 406.5,-16 406.5,-16 443.5,-16 443.5,-16 449.5,-16 455.5,-22 455.5,-28 455.5,-28 455.5,-40 455.5,-40 455.5,-46 449.5,-52 443.5,-52"/>
<text xml:space="preserve" text-anchor="middle" x="425" y="-37.05" font-family="Helvetica,sans-Serif" font-size="11.00">Crawler</text>
<text xml:space="preserve" text-anchor="middle" x="425" y="-23.55" font-family="Helvetica,sans-Serif" font-size="11.00">Crawl4AI</text>
</g>
<!-- rag&#45;&gt;crawl -->
<g id="edge5" class="edge">
<title>rag&#45;&gt;crawl</title>
<path fill="none" stroke="black" stroke-dasharray="5,2" d="M444.26,-104.46C440.99,-92.68 436.58,-76.76 432.8,-63.13"/>
<polygon fill="black" stroke="black" points="436.26,-62.52 430.22,-53.82 429.52,-64.39 436.26,-62.52"/>
<text xml:space="preserve" text-anchor="middle" x="478.25" y="-71.95" font-family="Helvetica,sans-Serif" font-size="9.00">web fallback / ingest</text>
</g>
</g>
</svg>
